<svg id="Knee_Icon" data-name="Knee Icon" xmlns="http://www.w3.org/2000/svg" width="38" height="62" viewBox="0 0 38 62">
  <path id="Path_8" data-name="Path 8" d="M23.149,28.571l.72-.36a11.671,11.671,0,0,1,10.262,0l.714.358A4.1,4.1,0,0,0,36.669,29h.26V27h-.26a2.089,2.089,0,0,1-.928-.219l-.714-.358a13.707,13.707,0,0,0-12.051,0l-.722.361a2.07,2.07,0,0,1-.923.217h-.26v2h.26A4.068,4.068,0,0,0,23.149,28.571Z" transform="translate(-13 -1)"/>
  <path id="Path_9" data-name="Path 9" d="M45.143,25.308l-.159-.045c0-.112.016-.222.016-.334a8.019,8.019,0,0,0-2.364-5.707A15.725,15.725,0,0,1,38,8.029V1H20V8.029a15.721,15.721,0,0,1-4.636,11.192A8.061,8.061,0,0,0,14,28.813v4.715a20.05,20.05,0,0,0,2,8.705V48.4a7.724,7.724,0,0,0,3.445,6.438L19.7,55H22V44.692a12.923,12.923,0,0,1,.748-4.309A15.7,15.7,0,0,1,26,49.97V63H44V49.971a15.721,15.721,0,0,1,4.636-11.192A8.023,8.023,0,0,0,51,33.071,8.1,8.1,0,0,0,45.143,25.308ZM16.508,20.934l6.023.072,3.425-5.137L28.434,20H34V18H29.566l-2.014-3.357,6.691-1.673-.485-1.94-8.375,2.094-3.913,5.87-3.227-.039A17.685,17.685,0,0,0,22,8.029V3H36V8.029a17.707,17.707,0,0,0,5.222,12.606A6.072,6.072,0,0,1,36.929,31H36.67a6.1,6.1,0,0,1-2.715-.641L33.236,30a9.472,9.472,0,0,0-8.472,0l-.718.359A6.1,6.1,0,0,1,21.331,31h-.259a6.064,6.064,0,0,1-4.564-10.066ZM20,44.692v8.055a5.725,5.725,0,0,1-2-4.353V41.763l-.1-.211A18.016,18.016,0,0,1,16,33.528V31.2a8.05,8.05,0,0,0,3.017,1.526c-.005.115-.017.23-.017.345A8.016,8.016,0,0,0,21.293,38.7a4.022,4.022,0,0,0-.222.428A14.919,14.919,0,0,0,20,44.692Zm27.222-7.328A17.708,17.708,0,0,0,42,49.971V61H28V49.971a17.707,17.707,0,0,0-5.222-12.606A6.034,6.034,0,0,1,21,33.071c0-.025,0-.05,0-.075.023,0,.045,0,.068,0h.259a8.116,8.116,0,0,0,3.61-.852l.718-.359a7.6,7.6,0,0,1,6.684,0l.718.359A8.092,8.092,0,0,0,36.669,33h.259a8.083,8.083,0,0,0,7.726-5.746A6.091,6.091,0,0,1,49,33.071,6.03,6.03,0,0,1,47.222,37.364Z" transform="translate(-13 -1)"/>
  <path id="Path_10" data-name="Path 10" d="M38.714,36.237a10.781,10.781,0,0,1-8.73-.363L28.447,35.1l-.9,1.789,1.537.769A12.717,12.717,0,0,0,34,38.956V43.5l-4,3V53h2V47.5L34.9,45.32l4.387,4.387,1.414-1.414L36,43.586V38.937a12.6,12.6,0,0,0,3.458-.843l2.914-1.166-.743-1.857Z" transform="translate(-13 -1)"/>
</svg>
