<svg xmlns="http://www.w3.org/2000/svg" width="28" height="38" viewBox="0 0 28 38">
  <g id="location" transform="translate(-4)">
    <path id="Path_3" data-name="Path 3" d="M17,19.745a7,7,0,1,0-7-7A7.007,7.007,0,0,0,17,19.745ZM17,6.913a5.833,5.833,0,1,1-5.833,5.833A5.838,5.838,0,0,1,17,6.913Z" transform="translate(1 1.15)" fill-rule="evenodd"/>
    <path id="Path_4" data-name="Path 4" d="M18,0A14.091,14.091,0,0,0,4,14.251c0,8.312,7,16.816,12.1,22.793a2.838,2.838,0,0,0,1.85.956h.09a2.842,2.842,0,0,0,1.85-.956C25,31.067,32,22.565,32,14.251A14.092,14.092,0,0,0,18,0Zm.136,35.486a1.418,1.418,0,0,1-.157.116,1.177,1.177,0,0,0-.15-.158C13.552,30.437,6.333,21.985,6.333,14.251A11.787,11.787,0,0,1,18,2.375,11.787,11.787,0,0,1,29.667,14.252C29.667,21.985,22.448,30.437,18.135,35.486Z" fill-rule="evenodd"/>
  </g>
</svg>
