<svg xmlns="http://www.w3.org/2000/svg" width="28" height="37.33" viewBox="0 0 28 37.33">
  <g id="location" transform="translate(-4)">
    <path id="Path_3" data-name="Path 3" d="M17,19.745a7,7,0,1,0-7-7A7.007,7.007,0,0,0,17,19.745ZM17,6.913a5.833,5.833,0,1,1-5.833,5.833A5.838,5.838,0,0,1,17,6.913Z" transform="translate(1 0.957)" fill="#333" fill-rule="evenodd"/>
    <path id="Path_4" data-name="Path 4" d="M18,0A13.964,13.964,0,0,0,4,14c0,8.166,7,16.52,12.1,22.391a2.851,2.851,0,0,0,1.85.939h.09a2.854,2.854,0,0,0,1.85-.939C25,30.52,32,22.167,32,14A13.965,13.965,0,0,0,18,0Zm.136,34.861a1.416,1.416,0,0,1-.157.114,1.165,1.165,0,0,0-.15-.155C13.552,29.9,6.333,21.6,6.333,14a11.667,11.667,0,1,1,23.334,0C29.667,21.6,22.448,29.9,18.135,34.861Z" fill="#333" fill-rule="evenodd"/>
  </g>
</svg>
