<svg id="Other_Icon" data-name="Other Icon" xmlns="http://www.w3.org/2000/svg" width="59.998" height="64.917" viewBox="0 0 59.998 64.917">
  <path id="Path_12" data-name="Path 12" d="M75.627,11.074a16.747,16.747,0,0,0-8.689-5.58A2.092,2.092,0,0,0,64.89,3.344H62.34A3.7,3.7,0,0,0,59.42,4.953H57.666V.923a.952.952,0,0,0-1.9,0V5.558a12.276,12.276,0,0,1-12.743,0V.923a.952.952,0,0,0-1.9,0v4.03H36.069A16.534,16.534,0,0,0,28.9,6.566a.953.953,0,0,0,.818,1.718,14.645,14.645,0,0,1,6.347-1.428H41.52l.023.018a14.183,14.183,0,0,0,7.848,2.37,14.191,14.191,0,0,0,7.848-2.37l.023-.018h.582L33.877,35.818V22.08a.952.952,0,0,0-1.9,0v5.569H21.3V21.622a14.638,14.638,0,0,1,4.539-10.648A.952.952,0,0,0,24.517,9.6a16.525,16.525,0,0,0-5.124,12.021V28.6a.951.951,0,0,0,.951.951h.61v6.773h-.512a.951.951,0,0,0-.951.951V55.247a9.424,9.424,0,0,0,9.669,9.668H53.1a7.022,7.022,0,1,0,0-14.044H51.917a2.683,2.683,0,0,0-2.934-4.107L66.3,7.295A14.769,14.769,0,0,1,77.488,21.622v6.027H66.81V21.865a.952.952,0,0,0-1.9,0v19.2a.952.952,0,0,0,1.9,0V29.551h9.116V63.964a.952.952,0,0,0,1.9,0V29.551h.61a.951.951,0,0,0,.951-.951V21.622a16.7,16.7,0,0,0-3.763-10.548ZM21.394,38.227c2.106.027,4.231,0,6.343,0l-6.343,6.34Zm0,8.982a.949.949,0,0,0,.2-.153l8.833-8.829h1.436v.022L21.394,50.9Zm1.463-17.657h9.117v6.773H22.858ZM46.347,52.774h3.392L43.7,58.81ZM53.1,63.013H50.114L57.629,55.5A5.17,5.17,0,0,1,53.1,63.013Zm3.331-9-9.009,9H42.186L52.43,52.774a5.666,5.666,0,0,1,4,1.235Zm-6.2-5.276a.637.637,0,0,1,.173.978l-.823,1.16h-1.83l1.436-2.024a.725.725,0,0,1,1.044-.115ZM65.022,5.46,40,62.508l-.505.5H29.16a7.775,7.775,0,0,1-7.766-7.766V53.885l39.1-47.242c.643-.524.839-1.4,1.848-1.4h2.55a.147.147,0,0,1,.132.213Z" transform="translate(-19.393 0)"/>
  <path id="Path_13" data-name="Path 13" d="M379.164,356.273a.951.951,0,0,0-.951.951v17.822a.952.952,0,0,0,1.9,0V357.224A.951.951,0,0,0,379.164,356.273Z" transform="translate(-332.699 -311.082)"/>
</svg>
