<svg xmlns="http://www.w3.org/2000/svg" width="41.173" height="38.443" viewBox="0 0 41.173 38.443">
  <g id="iconfinder_phone1_172517" transform="translate(0 -0.057)">
    <rect id="Rectangle_11" data-name="Rectangle 11" width="41" height="38" transform="translate(0 0.5)" fill="none"/>
    <path id="Path_1" data-name="Path 1" d="M24.609,25.712s3.272-1.672,4.128-2.074a2.712,2.712,0,0,1,2.276-.212c.814.444,7.647,4.5,8.222,4.862a1.609,1.609,0,0,1,.061,2.4c-.788,1.007-4.423,4.99-5.963,4.947s-7.956-.17-20.051-10.972S1.049,8.133,1,6.756,5.411,2.134,6.539,1.429a2.147,2.147,0,0,1,2.684.056c.456.563,4.949,6.645,5.443,7.342a1.97,1.97,0,0,1-.238,2.034c-.449.765-2.322,3.686-2.322,3.686a37.079,37.079,0,0,0,5.786,6A39.672,39.672,0,0,0,24.609,25.712Z" transform="translate(0.385 0.193)" fill="none" stroke="#000" stroke-miterlimit="10" stroke-width="2"/>
  </g>
</svg>
