<svg id="Shoulder_Icon" data-name="Shoulder Icon" xmlns="http://www.w3.org/2000/svg" width="60" height="60.004" viewBox="0 0 60 60.004">
  <path id="Shape" d="M2.58,59.21C4.36,55.3,11.72,39,16,39c3.57,0,5.52-1,6.58-2A3,3,0,0,0,26,34.22a26,26,0,0,0,2.46,4A2,2,0,0,0,31.8,38l3.25-5.54c2.78,2.77,4.88,4.48,6.1,8.29l5.9,18.54a1,1,0,0,0,1,.7H58a1,1,0,0,0,1-1.2C56.35,45.67,60,39.67,60,29c0-9.09-3.26-11-6-11-2.24,0-4.28,2.32-5.71,4.53a34.86,34.86,0,0,1-5.56-3.14l2-3.39a2,2,0,0,0-1-2.91c-7-2.53-13.87-.8-17.67,5.83V18a3,3,0,0,0-4.26-2.71,7.49,7.49,0,0,0-.85-1.09,31.3,31.3,0,0,1,8.68-3C37.18,9.44,44,7.61,44,4c0-2.65-3.7-4-11-4H2A2,2,0,0,0,0,2V6.73A2,2,0,0,0,2.45,8.68,54.46,54.46,0,0,1,13.61,7,103,103,0,0,1,2.77,11.49,4,4,0,0,0,0,15.29V58.64a1.35,1.35,0,0,0,2.58.57ZM20,27H17a1,1,0,0,1,0-2h3ZM48.73,58c-6.88-21.63-5.47-17.26-5.94-18.52l4.14-15.36a12,12,0,0,0,1.7.66,1,1,0,0,1,.74.71l2.43,8.89a1,1,0,0,1-.14.82c-1,1.55-1.72,2.27-1.59,3.6L51.9,58ZM54,20c3.48,0,4,5.64,4,9a73.82,73.82,0,0,1-1,10.36C55.93,46.9,55.52,50.53,56.8,58H53.91L52.06,38.61c0-.44.07-.51,1.27-2.3a3,3,0,0,0,.4-2.45L51.3,25a2.9,2.9,0,0,0-1.15-1.61C51.57,21.23,53,20,54,20Zm-8.89,3.19-3.64,13.5c-1.3-2.12-2.45-3.09-5.37-6l5.62-9.57c1.05.7,2.28,1.43,3.39,2.07Zm-16.17-5c3.54-4.4,8.91-5,14.06-3.17L30.08,37c-2.39-3.17-7.2-11.33-1.14-18.85ZM24,18V34a1,1,0,0,1-2,0V18a1,1,0,0,1,2,0ZM13,5A61.42,61.42,0,0,0,2,6.73V2H33c6.56,0,9,1.23,9,2a.8.8,0,0,1,0,.21c-3.91-.58-9.48-.15-14.9.28A117.13,117.13,0,0,1,13,5ZM2,15.29a2,2,0,0,1,1.38-1.9A136,136,0,0,0,18.25,7c6.22,0,15.46-1.4,21.61-1-4.29,2.1-12,3.32-14.18,4.05a65.15,65.15,0,0,0-7.13,3.06,1,1,0,0,0,0,1.78,4.74,4.74,0,0,1,1.74,1.84c-.41.88-.29,1.14-.29,6.27H17a3,3,0,0,0,0,6h3v5a3,3,0,0,0,.7,1.91A8.28,8.28,0,0,1,16,37c-4.51,0-9.74,9.55-14,18.68Z" transform="translate(0)"/>
  <path id="Shape-2" data-name="Shape" d="M18,19c0-1.8-1.42-3.44-4.23-4.89a.37.37,0,0,1,0-.64c1.57-.93,3.15-1.8,4.71-2.58a1,1,0,1,0-.9-1.78c-1.6.8-3.22,1.69-4.83,2.64a2.36,2.36,0,0,0,.13,4.13c2,1,3.15,2.17,3.15,3.12,0,.05,0,.08-.08.15-1,.8-5.29.56-8.72-.13a1.02,1.02,0,1,0-.4,2C10.42,21.7,18,22.67,18,19Z" transform="translate(0)"/>
</svg>
