<svg id="Sport_Icon" data-name="Sport Icon" xmlns="http://www.w3.org/2000/svg" width="61" height="64.932" viewBox="0 0 61 64.932">
  <g id="Group_5" data-name="Group 5">
    <g id="Group_4" data-name="Group 4" transform="translate(0)">
      <path id="Path_11" data-name="Path 11" d="M74.5,26.228a13.383,13.383,0,0,0-.659-1.361l-.529-.953a11.282,11.282,0,0,1-1.419-5.466V0H69.728V3.247H47V0H44.837V26.041a2.158,2.158,0,0,1-.384,1.232L26.2,53.64a2.172,2.172,0,0,1-1.157.842l-7.523,2.256a4.185,4.185,0,0,0,1.2,8.193h24.3a9.753,9.753,0,0,0,8.49-4.965l4.392-7.8a15.952,15.952,0,0,1,7.733-6.873l3.633-1.515A13.419,13.419,0,0,0,74.5,26.228ZM47,5.411H69.728V7.918L47,16.812Zm0,13.726,22.726-8.894v8.2a13.43,13.43,0,0,0,.188,2.115H47ZM18.139,58.812l2.889-.866v.541A1.082,1.082,0,0,1,19.97,59.57l-2.915.065A2.01,2.01,0,0,1,18.139,58.812Zm31.488.1a7.582,7.582,0,0,1-6.607,3.857H18.72A2.015,2.015,0,0,1,17,61.794l3.014-.067a3.265,3.265,0,0,0,3.175-3.247V57.29l2.468-.74a4.346,4.346,0,0,0,2.315-1.683l.087-.107L49.914,58.4ZM54.015,51.1l-2.978,5.293-21.617-3.6L46.232,28.5A4.31,4.31,0,0,0,47,26.041v-.126L62.376,43.487A18.116,18.116,0,0,0,54.015,51.1ZM71.946,36.847a11.309,11.309,0,0,1-5.511,4.926l-1.966.819L47.086,22.726H70.461a13.379,13.379,0,0,0,.96,2.237l.525.953A11.193,11.193,0,0,1,71.946,36.847Z" transform="translate(-14.533)"/>
    </g>
  </g>
  <g id="Group_7" data-name="Group 7" transform="translate(21.376 48.733)">
    <g id="Group_6" data-name="Group 6" transform="translate(0 0)">
      <rect id="Rectangle_36" data-name="Rectangle 36" width="2.163" height="8.924" transform="translate(0 2.099) rotate(-75.965)"/>
    </g>
  </g>
  <g id="Group_9" data-name="Group 9" transform="translate(31.706 31.701)">
    <g id="Group_8" data-name="Group 8" transform="translate(0 0)">
      <rect id="Rectangle_37" data-name="Rectangle 37" width="2.164" height="15.302" transform="translate(0 1.53) rotate(-45)"/>
    </g>
  </g>
  <g id="Group_11" data-name="Group 11" transform="translate(28.455 37.11)">
    <g id="Group_10" data-name="Group 10" transform="translate(0 0)">
      <rect id="Rectangle_38" data-name="Rectangle 38" width="2.164" height="6.122" transform="translate(0 1.53) rotate(-45)"/>
    </g>
  </g>
  <g id="Group_13" data-name="Group 13" transform="translate(43.993 14.139)">
    <g id="Group_12" data-name="Group 12" transform="translate(0 0)">
      <rect id="Rectangle_39" data-name="Rectangle 39" width="9.246" height="2.164" transform="matrix(0.936, -0.351, 0.351, 0.936, 0, 3.245)"/>
    </g>
  </g>
  <g id="Group_15" data-name="Group 15" transform="translate(34.205 8.746)">
    <g id="Group_14" data-name="Group 14" transform="translate(0)">
      <rect id="Rectangle_40" data-name="Rectangle 40" width="8.242" height="2.164" transform="translate(0 3.247) rotate(-23.199)"/>
    </g>
  </g>
</svg>
